<?xml version="1.0" encoding="UTF-8" standalone="no"?>
<!-- Created with Inkscape (http://www.inkscape.org/) -->

<svg
   width="455"
   height="500"
   viewBox="0 0 120.38541 132.29167"
   version="1.1"
   id="svg1"
   inkscape:export-filename="bitmap.png"
   inkscape:export-xdpi="96"
   inkscape:export-ydpi="96"
   inkscape:version="1.3.2 (091e20e, 2023-11-25, custom)"
   sodipodi:docname="455x500.svg"
   xmlns:inkscape="http://www.inkscape.org/namespaces/inkscape"
   xmlns:sodipodi="http://sodipodi.sourceforge.net/DTD/sodipodi-0.dtd"
   xmlns:xlink="http://www.w3.org/1999/xlink"
   xmlns="http://www.w3.org/2000/svg"
   xmlns:svg="http://www.w3.org/2000/svg">
  <sodipodi:namedview
     id="namedview1"
     pagecolor="#0a0a0a"
     bordercolor="#000000"
     borderopacity="0.25"
     inkscape:showpageshadow="2"
     inkscape:pageopacity="0.0"
     inkscape:pagecheckerboard="0"
     inkscape:deskcolor="#d1d1d1"
     inkscape:document-units="px"
     inkscape:export-bgcolor="#0a0a0a00"
     inkscape:zoom="0.76702441"
     inkscape:cx="265.31098"
     inkscape:cy="227.50254"
     inkscape:window-width="2560"
     inkscape:window-height="1057"
     inkscape:window-x="-8"
     inkscape:window-y="-8"
     inkscape:window-maximized="1"
     inkscape:current-layer="layer1" />
  <defs
     id="defs1">
    <linearGradient
       id="linearGradient8"
       inkscape:collect="always">
      <stop
         style="stop-color:#d31828;stop-opacity:1;"
         offset="0"
         id="stop9" />
      <stop
         style="stop-color:#1a92e5;stop-opacity:1;"
         offset="1"
         id="stop10" />
    </linearGradient>
    <linearGradient
       inkscape:collect="always"
       xlink:href="#linearGradient8"
       id="linearGradient10"
       x1="22.123095"
       y1="112.48001"
       x2="110.42135"
       y2="19.552492"
       gradientUnits="userSpaceOnUse"
       gradientTransform="matrix(1.5964912,0,0,1.6666667,-45.408536,-44.097226)"
       spreadMethod="pad" />
  </defs>
  <g
     inkscape:label="Layer 1"
     inkscape:groupmode="layer"
     id="layer1">
    <path
       id="rect1"
       style="fill:url(#linearGradient10);stroke-width:0.423618"
       d="M 20.546742,-4.2472529e-6 C 9.1641051,-4.2472529e-6 -3.8625002e-6,9.2312407 -3.8625002e-6,20.697268 V 111.5944 c 0,11.46602 9.1641089625002,20.69727 20.5467458625002,20.69727 h 35.26831 V -4.2472529e-6 Z m 44.023614,0 V 132.29167 h 35.2683 c 11.382644,0 20.546764,-9.23125 20.546764,-20.69727 V 20.697268 C 120.38542,9.2312407 111.2213,-4.2472529e-6 99.838656,-4.2472529e-6 Z M 17.245549,9.7013847 h 21.542834 c 4.339998,0 7.833601,3.5191963 7.833601,7.8909913 v 43.749268 c 0,4.371799 -3.493603,7.890992 -7.833601,7.890992 H 17.245549 c -4.34,0 -7.8336029,-3.519193 -7.8336029,-7.890992 V 17.592376 c 0,-4.371795 3.4936029,-7.8909913 7.8336029,-7.8909913 z m 64.351481,0 h 21.54283 c 4.34,0 7.8336,3.5191913 7.8336,7.8909913 v 43.749268 c 0,4.371802 -3.4936,7.890992 -7.8336,7.890992 H 81.59703 c -4.340005,0 -7.833601,-3.51919 -7.833601,-7.890992 V 17.592376 c 0,-4.3718 3.493596,-7.8909913 7.833601,-7.8909913 z"
       inkscape:label="Mark" />
  </g>
</svg>
