<?xml version="1.0" encoding="UTF-8" standalone="no"?>
<!-- Created with Inkscape (http://www.inkscape.org/) -->

<svg
   width="128"
   height="128"
   viewBox="0 0 33.866665 33.866668"
   version="1.1"
   id="svg1"
   inkscape:export-filename="favicon.svg"
   inkscape:export-xdpi="96"
   inkscape:export-ydpi="96"
   inkscape:version="1.3.2 (091e20e, 2023-11-25, custom)"
   sodipodi:docname="Circle 128x128.svg"
   xmlns:inkscape="http://www.inkscape.org/namespaces/inkscape"
   xmlns:sodipodi="http://sodipodi.sourceforge.net/DTD/sodipodi-0.dtd"
   xmlns:xlink="http://www.w3.org/1999/xlink"
   xmlns="http://www.w3.org/2000/svg"
   xmlns:svg="http://www.w3.org/2000/svg">
  <sodipodi:namedview
     id="namedview1"
     pagecolor="#ffffff"
     bordercolor="#000000"
     borderopacity="0.25"
     inkscape:showpageshadow="2"
     inkscape:pageopacity="0.0"
     inkscape:pagecheckerboard="0"
     inkscape:deskcolor="#d1d1d1"
     inkscape:document-units="px"
     inkscape:export-bgcolor="#0a0a0aff"
     inkscape:zoom="3.0680976"
     inkscape:cx="-58.179374"
     inkscape:cy="66.327746"
     inkscape:window-width="2560"
     inkscape:window-height="1057"
     inkscape:window-x="-8"
     inkscape:window-y="-8"
     inkscape:window-maximized="1"
     inkscape:current-layer="layer1" />
  <defs
     id="defs1">
    <linearGradient
       id="linearGradient8"
       inkscape:collect="always">
      <stop
         style="stop-color:#d31828;stop-opacity:1;"
         offset="0"
         id="stop9" />
      <stop
         style="stop-color:#1a92e5;stop-opacity:1;"
         offset="1"
         id="stop10" />
    </linearGradient>
    <linearGradient
       inkscape:collect="always"
       xlink:href="#linearGradient8"
       id="linearGradient10"
       x1="22.123095"
       y1="112.48001"
       x2="110.42135"
       y2="19.552492"
       gradientUnits="userSpaceOnUse"
       gradientTransform="matrix(0.20754384,0,0,0.21666665,3.2051718,2.6017368)"
       spreadMethod="pad" />
  </defs>
  <g
     inkscape:label="Layer 1"
     inkscape:groupmode="layer"
     id="layer1">
    <circle
       style="display:inline;fill:#0a0a0a;stroke-width:0.264583"
       id="path1"
       cx="16.933332"
       cy="16.933332"
       r="16.933332"
       inkscape:label="Background" />
    <path
       id="rect1"
       style="fill:url(#linearGradient10);stroke-width:0.0550703"
       d="m 11.779357,8.3343752 c -1.479742,0 -2.6710765,1.2000617 -2.6710765,2.6906438 v 11.816627 c 0,1.490583 1.1913345,2.690645 2.6710765,2.690645 h 4.584881 V 8.3343752 Z m 5.72307,0 V 25.532291 h 4.584879 c 1.479744,0 2.67108,-1.200062 2.67108,-2.690645 V 11.025019 c 0,-1.4905821 -1.191336,-2.6906438 -2.67108,-2.6906438 z m -6.152225,1.2611805 h 2.800569 c 0.564199,0 1.018368,0.4574953 1.018368,1.0258293 v 5.687403 c 0,0.568333 -0.454169,1.025829 -1.018368,1.025829 h -2.800569 c -0.5642,0 -1.018368,-0.457496 -1.018368,-1.025829 v -5.687403 c 0,-0.568334 0.454168,-1.0258293 1.018368,-1.0258293 z m 8.365693,0 h 2.800568 c 0.5642,0 1.018368,0.4574943 1.018368,1.0258293 v 5.687403 c 0,0.568334 -0.454168,1.025829 -1.018368,1.025829 h -2.800568 c -0.564201,0 -1.018368,-0.457495 -1.018368,-1.025829 v -5.687403 c 0,-0.568335 0.454167,-1.0258293 1.018368,-1.0258293 z"
       inkscape:label="Logo" />
  </g>
</svg>
