<?xml version="1.0" encoding="UTF-8" standalone="no"?>
<!-- Created with Inkscape (http://www.inkscape.org/) -->

<svg
   width="700"
   height="160"
   viewBox="0 0 185.20832 42.333335"
   version="1.1"
   id="svg1"
   inkscape:export-filename="bitmap.png"
   inkscape:export-xdpi="96"
   inkscape:export-ydpi="96"
   inkscape:version="1.3.2 (091e20e, 2023-11-25, custom)"
   sodipodi:docname="Padding, Round Background 700x160.svg"
   xml:space="preserve"
   xmlns:inkscape="http://www.inkscape.org/namespaces/inkscape"
   xmlns:sodipodi="http://sodipodi.sourceforge.net/DTD/sodipodi-0.dtd"
   xmlns:xlink="http://www.w3.org/1999/xlink"
   xmlns="http://www.w3.org/2000/svg"
   xmlns:svg="http://www.w3.org/2000/svg"><sodipodi:namedview
     id="namedview1"
     pagecolor="#ffffff"
     bordercolor="#000000"
     borderopacity="0.25"
     inkscape:showpageshadow="2"
     inkscape:pageopacity="0.0"
     inkscape:pagecheckerboard="0"
     inkscape:deskcolor="#d1d1d1"
     inkscape:document-units="px"
     inkscape:export-bgcolor="#0a0a0a00"
     inkscape:zoom="1.4142136"
     inkscape:cx="288.85311"
     inkscape:cy="48.436813"
     inkscape:window-width="2560"
     inkscape:window-height="1057"
     inkscape:window-x="-8"
     inkscape:window-y="-8"
     inkscape:window-maximized="1"
     inkscape:current-layer="layer1" /><defs
     id="defs1"><linearGradient
       id="linearGradient8"
       inkscape:collect="always"><stop
         style="stop-color:#d31828;stop-opacity:1;"
         offset="0"
         id="stop9" /><stop
         style="stop-color:#1a92e5;stop-opacity:1;"
         offset="1"
         id="stop10" /></linearGradient><linearGradient
       inkscape:collect="always"
       xlink:href="#linearGradient8"
       id="linearGradient10"
       x1="22.123095"
       y1="112.48001"
       x2="110.42135"
       y2="19.552492"
       gradientUnits="userSpaceOnUse"
       gradientTransform="matrix(0.73452654,0,0,0.76666665,47.75267,33.954862)"
       spreadMethod="pad" /></defs><g
     inkscape:label="Layer 1"
     inkscape:groupmode="layer"
     id="layer1"><rect
       style="display:inline;fill:#0a0a0a;fill-opacity:1;stroke-width:0.264583"
       id="rect2"
       width="185.20833"
       height="42.333332"
       x="0"
       y="0"
       ry="8.6651039"
       inkscape:label="Background" /><g
       id="g1"
       inkscape:label="Logo"
       transform="matrix(0.4129644,0,0,0.41304347,20.542623,-13.804347)"><text
         xml:space="preserve"
         style="font-size:36.516px;font-family:Geist;-inkscape-font-specification:Geist;fill:#0a0a0a;stroke-width:0.758553"
         x="144.6949"
         y="94.67205"
         id="text1"
         inkscape:label="Logotype"><tspan
           sodipodi:role="line"
           id="tspan1"
           style="font-style:normal;font-variant:normal;font-weight:normal;font-stretch:normal;font-size:36.516px;font-family:Geist;-inkscape-font-specification:Geist;fill:#ededed;fill-opacity:1;stroke-width:0.758553"
           x="144.6949"
           y="94.67205">gethere.</tspan></text><path
         id="rect1"
         style="fill:url(#linearGradient10);stroke-width:0.194883"
         d="m 78.097907,54.239583 c -5.237016,0 -9.453313,4.246373 -9.453313,9.520745 v 41.812682 c 0,5.27436 4.216297,9.52074 9.453313,9.52074 H 94.324435 V 54.239583 Z m 20.254734,0 v 60.854167 h 16.226529 c 5.23702,0 9.45332,-4.24638 9.45332,-9.52074 V 63.760328 c 0,-5.274372 -4.2163,-9.520745 -9.45332,-9.520745 z m -21.773574,4.462639 h 9.911601 c 1.996782,0 3.604147,1.61883 3.604147,3.629856 v 20.124663 c 0,2.011027 -1.607365,3.629856 -3.604147,3.629856 h -9.911601 c -1.996782,0 -3.604147,-1.618829 -3.604147,-3.629856 V 62.332078 c 0,-2.011026 1.607365,-3.629856 3.604147,-3.629856 z m 29.607343,0 h 9.91161 c 1.99678,0 3.60414,1.618828 3.60414,3.629856 v 20.124663 c 0,2.011029 -1.60736,3.629856 -3.60414,3.629856 h -9.91161 c -1.99678,0 -3.60414,-1.618827 -3.60414,-3.629856 V 62.332078 c 0,-2.011028 1.60736,-3.629856 3.60414,-3.629856 z"
         inkscape:label="Mark" /></g></g></svg>
